<svg xmlns="http://www.w3.org/2000/svg" width="690" height="339.312" viewBox="0 0 690 339.312">
  <g id="Grupo_28213" data-name="Grupo 28213" transform="translate(-946.82 -482.093)">
    <g id="Grupo_28149" data-name="Grupo 28149" transform="translate(946.82 482.093)">
      <path id="Trazado_56402" data-name="Trazado 56402" d="M1812.349,805.734c-.033.555-.076,1.114-.119,1.678a128.369,128.369,0,0,1-1.723,12.936c0,.015-.006.027-.008.041-.019.11-.041.219-.062.33,0,.008,0,.019,0,.029l-150.89-.289-391.552-.748s-51.944-38.911-68.875-100.255c-.014-.051-.029-.1-.041-.154a142.265,142.265,0,0,1-4.966-46.687c.01-.164.02-.33.032-.494a149,149,0,0,1,9.894-44.075,180.873,180.873,0,0,1,10.755-22.869q1.475-2.649,3.093-5.179c34.991-54.789,118.229-67.5,144-55.758,35.023,15.964,81.477-27.161,181.882-56.768,45.915-13.539,127.126-2.047,171.158,40.466.049.047.1.094.146.143,28.2,27.309,41.06,67.387,19.46,121.812-.023.055-.045.113-.07.17-.01.031-.024.063-.037.095-21.03,52.763,21.5,63.995,51.655,91.16.15.133.3.266.447.4a98.155,98.155,0,0,1,8.739,8.962q.876,1.026,1.719,2.083a70.768,70.768,0,0,1,9.275,15.067q.538,1.192,1.037,2.425a69.776,69.776,0,0,1,3.648,12.137,81.181,81.181,0,0,1,1.582,14.028C1812.616,799.4,1812.563,802.5,1812.349,805.734Z" transform="translate(-1131.579 -482.092)" fill="#dde8fd"/>
      <path id="Trazado_56403" data-name="Trazado 56403" d="M1780.821,1468.049s30.2,27.744,72.675,14.712,66.3-26.766,104.672-19.1,76.531,38.813,100.766,27.191,103.208-35.575,139.77-3.123,32.248,65.48,32.248,65.48H1776.624Z" transform="translate(-1567.456 -1214.587)" fill="#bed2fa"/>
      <path id="Trazado_56404" data-name="Trazado 56404" d="M1734.849,786.4l-.385.049L1199.076,855.69A142.266,142.266,0,0,1,1194.111,809c.01-.164.02-.33.032-.494l520.929-144.04.08-.023C1743.582,691.761,1756.585,731.883,1734.849,786.4Z" transform="translate(-1131.579 -618.48)" fill="#fff"/>
      <g id="Grupo_28128" data-name="Grupo 28128" transform="translate(67.977 179.823)">
        <g id="Grupo_28125" data-name="Grupo 28125" transform="translate(39.422)">
          <rect id="Rectángulo_5529" data-name="Rectángulo 5529" width="62.217" height="112.303" transform="translate(85.608 46.655)" fill="#fdb6b5"/>
          <path id="Trazado_56405" data-name="Trazado 56405" d="M1478.854,1195.481l-26.242,54.028h-79.725l41.353-54.028Z" transform="translate(-1372.887 -1195.48)" fill="#eb8e8e"/>
          <path id="Trazado_56406" data-name="Trazado 56406" d="M1426.934,1196.267l-41.564,53.83h2.37v104.925h80.092V1244.461Z" transform="translate(-1382.223 -1196.068)" fill="#fc9290"/>
          <path id="Rectángulo_5530" data-name="Rectángulo 5530" d="M11.15,0h0A10.788,10.788,0,0,1,21.938,10.788V36.471a0,0,0,0,1,0,0H0a0,0,0,0,1,0,0V11.15A11.15,11.15,0,0,1,11.15,0Z" transform="translate(33.453 27.015)" fill="#ba6767"/>
          <g id="Grupo_28124" data-name="Grupo 28124" transform="translate(41.353)">
            <path id="Trazado_56407" data-name="Trazado 56407" d="M1652.079,1252.506h-72.367l-42.773-57.025,24.079.005,47.041.008Z" transform="translate(-1536.939 -1195.48)" fill="#eb8e8e"/>
            <path id="Trazado_56408" data-name="Trazado 56408" d="M1723.525,1252.521h-13.26l-77.8-57.02,47.041.008Z" transform="translate(-1608.386 -1195.496)" fill="#ba6767"/>
          </g>
        </g>
        <g id="Grupo_28127" data-name="Grupo 28127" transform="translate(0 69.118)">
          <path id="Trazado_56409" data-name="Trazado 56409" d="M1291.937,1469.682l-18.683,38.465h-56.76l29.592-38.324Z" transform="translate(-1216.494 -1469.682)" fill="#eb8e8e"/>
          <g id="Grupo_28126" data-name="Grupo 28126" transform="translate(2.514 0.14)">
            <path id="Trazado_56410" data-name="Trazado 56410" d="M1256.06,1470.239l-29.592,38.324h0v28.959a59.891,59.891,0,0,0,15.961,8.187,71.645,71.645,0,0,0,20.934,3.891s.32.063.949.156H1283.1v-41.193h.124Z" transform="translate(-1226.468 -1470.238)" fill="#fc9290"/>
            <path id="Trazado_56411" data-name="Trazado 56411" d="M1495.883,1622.275v33.485q-5.14,1.5-9.932,2.674a205.216,205.216,0,0,1-28.629,5.034h-9.4v-41.194Z" transform="translate(-1392.102 -1583.95)" fill="#fdb6b5"/>
            <path id="Trazado_56412" data-name="Trazado 56412" d="M1415.861,1510.834h-51.52l-30.454-40.6,15.347,0,35.288.008Z" transform="translate(-1306.81 -1470.235)" fill="#eb8e8e"/>
            <path id="Trazado_56413" data-name="Trazado 56413" d="M1310.424,1621.339v32.654h-1.977c-.629-.093-.949-.156-.949-.156a71.654,71.654,0,0,1-20.934-3.891v-28.214a12.128,12.128,0,0,1,12.127-12.127,11.735,11.735,0,0,1,11.733,11.734Z" transform="translate(-1271.416 -1574.474)" fill="#ba6767"/>
            <path id="Trazado_56414" data-name="Trazado 56414" d="M1325.945,1544.329a2.678,2.678,0,1,0,2.677,2.678A2.678,2.678,0,0,0,1325.945,1544.329Z" transform="translate(-1298.867 -1525.652)" fill="#ba6767"/>
            <path id="Trazado_56415" data-name="Trazado 56415" d="M1461.4,1510.842h-9.778l-56.849-40.6,35.288.008Z" transform="translate(-1352.347 -1470.243)" fill="#ba6767"/>
          </g>
        </g>
      </g>
      <path id="Trazado_56416" data-name="Trazado 56416" d="M1478.5,1655.585c-41.107-12.187-90.939-23.39-131.874-13.586s-56.663,23.031-101.617-7.4c-9.836-6.659-17.844-9.181-25.06-9.3-.461-4.231-2.154-11.726-8.375-12.193-6.358-.478,1.15,7.786,5.646,12.264-24.2,1.61-40.586,29.087-91.406,11.746-7.806-2.664-15.866-2.5-23.461-.859-4.779-10.557-18.97-39.271-30.7-36.283s17.313,27.847,28.333,36.848q-1.967.509-3.881,1.135c-6.672-4.92-19.185-12.872-26.333-9.38-6.987,3.413,10.529,8.3,21.931,10.97a101.565,101.565,0,0,0-26.537,16.009Z" transform="translate(-1035.332 -1318.027)" fill="#3662c1"/>
      <g id="Grupo_28131" data-name="Grupo 28131" transform="translate(216.037 282.574)">
        <path id="Trazado_56417" data-name="Trazado 56417" d="M1962.646,1619.757h0c-.025-6.171-9.364-12.649-9.364-12.649,1.615-.127,5.736,1.954,5.736,1.954-1.1-.977-6.246-2.591-6.246-2.591-1.656-1.062-6.84-1.7-7.137-1.784s5.31-.765,5.31-.765l-6.734.451s-6.054-.749-10.472-1.195-16.526,1.381-16.526,1.381c.552-.468,5.013-1.381,5.013-1.381-5.668.573-13.993,2.124-14.007,2.126-4.834.322-8.044.6-8.044.6l-2.93,52.649s48.687-.255,55.569,0,10.451-9.686,11.98-21.412A37.645,37.645,0,0,0,1962.646,1619.757Z" transform="translate(-1873.709 -1603.108)" fill="#e75755"/>
        <g id="Grupo_28129" data-name="Grupo 28129" transform="translate(0 2.459)">
          <path id="Trazado_56418" data-name="Trazado 56418" d="M1835.972,1612.894s-15.676-1.192-25.617,11.426a16.486,16.486,0,0,0-1.03,1.473,12.093,12.093,0,0,1,1.345-3.613c-2.039,1.7-2.75,6.329-2.75,6.329l0,0a25.87,25.87,0,0,0-1.764,6.836c-1.238,1.514-2.286,2.721-2.286,2.721l2.208-2.022a39.293,39.293,0,0,0,1.142,13.648,4.264,4.264,0,0,0-2.713.227,4.411,4.411,0,0,1,2.83.214,37.986,37.986,0,0,0,1.351,4.052,53.846,53.846,0,0,0,1.742,6.365,29.089,29.089,0,0,1-.7-4.021c2.79,5.679,6.912,9.693,11.713,9.734,13,.111,29.012-1.886,32.476-18.857S1850.119,1613.321,1835.972,1612.894Z" transform="translate(-1803.872 -1612.864)" fill="#fca19a"/>
          <path id="Trazado_56419" data-name="Trazado 56419" d="M1829.9,1802.053a6.562,6.562,0,0,0,.238.712C1830.153,1802.812,1830.057,1802.538,1829.9,1802.053Z" transform="translate(-1823.336 -1754.364)" fill="#fca19a"/>
        </g>
        <g id="Grupo_28130" data-name="Grupo 28130" transform="translate(5.488 8.528)">
          <path id="Trazado_56420" data-name="Trazado 56420" d="M1846.052,1683.83a22.417,22.417,0,0,1-11.647-2.878c-4-2.45-6.619-6.4-7.773-11.743-1.965-9.093-1-16.553,2.869-22.173,3.617-5.255,9.723-8.677,17.66-9.9a13.908,13.908,0,0,1,13.412,5.006c4.938,5.921,6.357,15.925,3.45,24.327-2.054,5.936-7.539,9.6-14.672,9.809q-.305.008-.609.009c-7.185,0-13.664-3.674-15.887-9.072-2.268-5.5-2.15-10.887.331-15.158,2.519-4.338,7.276-7.16,13.4-7.945,5.539-.714,8.527,1.867,10.058,4.155,2.954,4.415,2.946,11.587.966,15.049-1.907,3.336-7.185,5.91-11.769,5.75a7.739,7.739,0,0,1-7.11-4.311c-1.643-3.423-1.535-6.957.3-9.7a7.213,7.213,0,0,1,6.064-3.434,4.084,4.084,0,0,1,3.774,4.03c.137,1.561-.4,3.3-1.678,3.6-2.385.556-3.231-.746-3.266-.8,0,0-1.288-2.126.315-2.432,1.835-.35,1.353,1.074,1.353,1.074.026.04-.454,1.965,1.45,1.521.784-.184,1.3-1.458,1.173-2.9a3.414,3.414,0,0,0-3.156-3.432,6.535,6.535,0,0,0-5.483,3.143,8.988,8.988,0,0,0-.25,9.05,7.1,7.1,0,0,0,6.543,3.939c4.363.149,9.378-2.275,11.177-5.421,1.667-2.916,2.115-9.79-.942-14.359-2.047-3.061-5.308-4.4-9.43-3.869-5.912.759-10.5,3.467-12.912,7.624-2.376,4.092-2.48,9.269-.292,14.579s8.717,8.865,15.872,8.658c6.851-.2,12.111-3.7,14.072-9.368,2.835-8.2,1.464-17.938-3.334-23.692a13.291,13.291,0,0,0-12.81-4.778c-7.753,1.19-13.708,4.517-17.219,9.619-3.762,5.466-4.693,12.755-2.768,21.664,1.115,5.16,3.63,8.968,7.474,11.322,7.768,4.754,20.022,1.877,20.129,1.848l-1.386.749A32.561,32.561,0,0,1,1846.052,1683.83Z" transform="translate(-1825.643 -1636.94)" fill="#e75755"/>
        </g>
      </g>
      <g id="Grupo_28134" data-name="Grupo 28134" transform="translate(272.896 267.281)">
        <path id="Trazado_56421" data-name="Trazado 56421" d="M2231.677,1563.646c-.031-7.861-11.927-16.112-11.927-16.112,2.056-.162,7.305,2.49,7.305,2.49-1.407-1.245-7.955-3.3-7.955-3.3-2.11-1.353-8.713-2.165-9.091-2.273s6.763-.974,6.763-.974l-8.577.574s-7.711-.953-13.339-1.521-21.051,1.759-21.051,1.759c.7-.6,6.385-1.759,6.385-1.759-7.218.73-17.826,2.7-17.841,2.708-6.157.41-10.245.768-10.245.768l-3.733,67.063s62.015-.324,70.782,0,13.312-12.338,15.26-27.273A47.942,47.942,0,0,0,2231.677,1563.646Z" transform="translate(-2118.394 -1542.439)" fill="#e75755"/>
        <g id="Grupo_28132" data-name="Grupo 28132" transform="translate(0 3.133)">
          <path id="Trazado_56422" data-name="Trazado 56422" d="M2070.328,1554.9s-19.967-1.518-32.63,14.553a21.084,21.084,0,0,0-1.31,1.866,15.4,15.4,0,0,1,1.711-4.592c-2.6,2.164-3.5,8.062-3.5,8.062h0a32.993,32.993,0,0,0-2.244,8.711c-1.576,1.929-2.912,3.466-2.912,3.466l2.812-2.574a50.039,50.039,0,0,0,1.454,17.384,5.428,5.428,0,0,0-3.454.289,5.628,5.628,0,0,1,3.6.272,48.242,48.242,0,0,0,1.723,5.169,68.513,68.513,0,0,0,2.211,8.08,37.313,37.313,0,0,1-.888-5.1c3.554,7.231,8.8,12.34,14.919,12.392,16.559.142,36.955-2.4,41.367-24.019S2088.347,1555.448,2070.328,1554.9Z" transform="translate(-2029.441 -1554.866)" fill="#fca19a"/>
          <path id="Trazado_56423" data-name="Trazado 56423" d="M2062.563,1795.764a8.281,8.281,0,0,0,.309.927C2062.9,1796.752,2062.772,1796.4,2062.563,1795.764Z" transform="translate(-2054.214 -1735.041)" fill="#fca19a"/>
        </g>
        <g id="Grupo_28133" data-name="Grupo 28133" transform="translate(6.99 10.862)">
          <path id="Trazado_56424" data-name="Trazado 56424" d="M2083.167,1645.258c-4.591,0-10.118-.779-14.836-3.667-5.1-3.121-8.43-8.153-9.9-14.957-2.5-11.582-1.273-21.084,3.655-28.244,4.606-6.693,12.384-11.052,22.494-12.6a17.717,17.717,0,0,1,17.084,6.377c6.29,7.543,8.1,20.285,4.4,30.986-2.616,7.561-9.6,12.232-18.689,12.494q-.39.012-.776.011c-9.152,0-17.4-4.679-20.237-11.555-2.887-7.01-2.738-13.867.422-19.308,3.209-5.525,9.269-9.119,17.062-10.12,7.055-.909,10.862,2.378,12.812,5.292,3.762,5.624,3.753,14.758,1.231,19.169-2.429,4.249-9.153,7.528-14.991,7.325-4.213-.151-7.43-2.1-9.056-5.491-2.092-4.36-1.955-8.862.376-12.353,1.876-2.811,4.909-4.525,7.723-4.374,3.232.176,4.609,2.875,4.807,5.133.175,1.988-.5,4.2-2.137,4.583-3.037.708-4.116-.95-4.16-1.021,0,0-1.64-2.708.4-3.1,2.338-.446,1.723,1.369,1.723,1.369.033.05-.578,2.5,1.846,1.936,1-.233,1.656-1.856,1.5-3.7-.177-2.017-1.326-4.224-4.021-4.371-2.528-.144-5.267,1.434-6.983,4-2.164,3.24-2.28,7.441-.318,11.528,1.9,3.968,5.583,4.919,8.334,5.018,5.557.19,11.945-2.9,14.236-6.9,2.123-3.714,2.694-12.469-1.2-18.291-2.608-3.9-6.761-5.6-12.011-4.928-7.531.967-13.371,4.416-16.446,9.711-3.026,5.211-3.158,11.806-.372,18.57s11.1,11.292,20.217,11.028c8.726-.252,15.427-4.713,17.924-11.933,3.612-10.439,1.865-22.849-4.246-30.178a16.929,16.929,0,0,0-16.316-6.086c-9.877,1.517-17.461,5.753-21.933,12.253-4.792,6.962-5.978,16.246-3.526,27.594,1.42,6.572,4.623,11.423,9.52,14.421,9.9,6.056,25.5,2.39,25.64,2.354l-1.766.954A41.479,41.479,0,0,1,2083.167,1645.258Z" transform="translate(-2057.171 -1585.532)" fill="#e75755"/>
        </g>
      </g>
      <g id="Grupo_28136" data-name="Grupo 28136" transform="translate(244.043 272.865)">
        <path id="Trazado_56425" data-name="Trazado 56425" d="M2247.744,1618.989s8.893,34.315,8.095,37.027-5.263,11.928-5.263,11.928h4.3a3.239,3.239,0,0,0,1.667-2.978c-.071-2.127,5.956-10.422,5.956-10.422s-2.365-13.173,0-18.363C2272.675,1613.834,2255.623,1614.046,2247.744,1618.989Z" transform="translate(-2163.863 -1603.252)" fill="#93b3f4"/>
        <path id="Trazado_56426" data-name="Trazado 56426" d="M2063.789,1674.133s2.553,18.434,2.694,19.568,1.347,2.552,1.277,4.4-.709,8.083-2.695,9.642a5.649,5.649,0,0,0-2.2,3.474h5.388a7.2,7.2,0,0,0,.78-3.119c-.142-1.276,1.489-2.623,1.56-5.246s0-7.516.709-9.217.5-13.4,2.836-16.023S2063.789,1674.133,2063.789,1674.133Z" transform="translate(-2025.588 -1646.521)" fill="#93b3f4"/>
        <path id="Trazado_56427" data-name="Trazado 56427" d="M2011.021,1594.826a21.341,21.341,0,0,0,.906-6.354c0-.792-.03-1.583-.087-2.432,0,0,7.033-12.778,2.022-17.671,0,0-.03-.615-1.641-1.114-1.465-.469-4.249-.792-9.495-.5-.147,0-.293.03-.439.03-1.964.117-4.308.147-6.887.059-12.542-.352-30.3-2.638-33.232-2.2-.527.088-1.084.176-1.7.293a39.81,39.81,0,0,1-4.806.586c-1.436.088-4.894-1.553-7.8-.645a50.761,50.761,0,0,0-9.348,5.861,69.889,69.889,0,0,0-11.429,11.37,76.162,76.162,0,0,0-7.063,10.315l0,0h-.009c-.787.083-1.711.736-2.652.858-1.277.166-1.521.795-1.521.795a2.154,2.154,0,0,0,.841,1,1.286,1.286,0,0,1-.134.022c-1.277.166-1.521.795-1.521.795a2.776,2.776,0,0,0,2.769,1.472h0l0,.006c-.293,1.231-.615,3.048-.059,3.9.879,1.319-.176,6.212-.088,7.854a11.768,11.768,0,0,1-.557,3.283,2.926,2.926,0,0,0,2.433,1.9c1.319-.088,2.9-.235,3.692-1.875.821-1.671,1.29-2.7,2.081-2.843.762-.147,5.157-4.425,6.1-6.3.5-.938,1.963-2.93,7.238-4.014a40.907,40.907,0,0,1,6.359-.7c.817,1.685,1.87,3.06,3.117,3.406.637,4.613,1.273,9.232,1.341,9.783.142,1.134,1.347,2.552,1.276,4.4s-.709,8.083-2.694,9.642a5.649,5.649,0,0,0-2.2,3.474h5.388a7.2,7.2,0,0,0,.78-3.12c-.142-1.276,1.489-2.623,1.56-5.246s0-7.516.709-9.217c.456-1.095.531-6.33,1.15-10.623,2.854-.582,5.676-1.088,7.182-.473,2.872,1.171,16.7,4.777,26.579.849a4.235,4.235,0,0,1,2.14.469,18.585,18.585,0,0,0,5.863,1.2c1.556,6.529,2.912,12.972,2.541,14.234-.8,2.712-5.264,11.928-5.264,11.928h4.3a3.24,3.24,0,0,0,1.667-2.978c-.071-2.127,5.955-10.422,5.955-10.422s.379-11.7,2.9-17.523a11.967,11.967,0,0,0,1.137-1.99A2.726,2.726,0,0,0,2011.021,1594.826Z" transform="translate(-1915.016 -1564.592)" fill="#bed2fa"/>
        <path id="Trazado_56428" data-name="Trazado 56428" d="M2312.855,1736.981s3.127-3.366,1.184-4.126-1.184,1.521-1.184,2.408Z" transform="translate(-2212.452 -1690.327)" fill="#0b0754"/>
        <path id="Trazado_56429" data-name="Trazado 56429" d="M2027.049,1567.256c-3.634,1.788-7.648,3.429-10.022,3.488-5.187.088-17.788-2.9-22.917-3.224s-25.905,4.484-30.8,2.931a.8.8,0,0,0-.381-.059c-1.084-.088-2.726.674-4.747,1.9-1.143.733-2.4,1.612-3.722,2.608-8.529,6.447-19.605,17.524-19.605,17.524a76.18,76.18,0,0,1,7.063-10.315,69.929,69.929,0,0,1,11.429-11.37,50.772,50.772,0,0,1,9.348-5.861c2.9-.908,6.359.733,7.795.645a39.808,39.808,0,0,0,4.806-.586c.615-.117,1.173-.2,1.7-.293,2.931-.44,20.689,1.846,33.231,2.2,2.579.088,4.924.059,6.887-.059.146,0,.292-.03.439-.03C2022.8,1566.464,2025.584,1566.787,2027.049,1567.256Z" transform="translate(-1929.845 -1564.592)" fill="#dde8fd"/>
        <g id="Grupo_28135" data-name="Grupo 28135" transform="translate(0 0.011)">
          <path id="Trazado_56430" data-name="Trazado 56430" d="M2099.583,1594.921c-.761-3.17-8.367-.76-15.593,2.155s-10.4.381-16.186,2.029-5.7,9.669-5.88,10.141c-2.036,5.2,13.318,2.282,18.946,4.776s19.347,1.056,18.713-3S2100.343,1598.09,2099.583,1594.921Z" transform="translate(-2024.745 -1586.166)" fill="#0b0754"/>
          <path id="Trazado_56431" data-name="Trazado 56431" d="M2102,1570.473c6.212-.254,7.987-3.55,15.466-2.155,6.149,1.146,10.5.408,12.767-1.441-12.529-.359-30.3-2.627-33.216-2.186-.53.08-1.1.178-1.706.278A6.185,6.185,0,0,0,2102,1570.473Z" transform="translate(-2049.854 -1564.634)" fill="#0b0754"/>
          <path id="Trazado_56432" data-name="Trazado 56432" d="M1938.479,1589a69.91,69.91,0,0,0-11.429,11.37,76.148,76.148,0,0,0-7.062,10.315c-.792.088-1.729.733-2.667.85-1.26.176-1.524.792-1.524.792a2.3,2.3,0,0,0,.85,1.025h-.146c-1.26.176-1.524.821-1.524.821a2.811,2.811,0,0,0,2.784,1.465c-.293,1.232-.615,3.048-.058,3.9.879,1.319-.176,6.212-.088,7.854a11.779,11.779,0,0,1-.557,3.283,2.924,2.924,0,0,0,2.432,1.9c1.318-.088,2.9-.235,3.692-1.875.821-1.67,1.29-2.7,2.081-2.843.762-.147,5.157-4.425,6.1-6.3.5-.937,1.964-2.931,7.238-4.014-.762-4.865-3.9-11.2-.586-16.469a14.586,14.586,0,0,0,.968-1.9,13.222,13.222,0,0,0,.5-1.759,13.017,13.017,0,0,0,.117-4.249A17.522,17.522,0,0,0,1938.479,1589Z" transform="translate(-1914.976 -1582.855)" fill="#0b0754"/>
          <path id="Trazado_56433" data-name="Trazado 56433" d="M2250.418,1583.366a14.545,14.545,0,0,0-4.384-8.906s-.1-2.276-11.141-1.622a6.371,6.371,0,0,0-2.114,5.332c.652,5.45-8.237,6.384-7.261,13,.847,5.742,12.134,8.15,18.569,3.377q.008-1.156-.073-2.43a40.2,40.2,0,0,0,2.3-5.2l1.521,27.144,1.446.081S2251.052,1589.072,2250.418,1583.366Z" transform="translate(-2147.184 -1570.682)" fill="#0b0754"/>
        </g>
      </g>
      <path id="Trazado_56434" data-name="Trazado 56434" d="M1565.251,734.256l-330.978,82.389a180.692,180.692,0,0,1,10.756-22.868q1.473-2.651,3.093-5.179Z" transform="translate(-1161.815 -670.693)" fill="#fff"/>
      <path id="Trazado_56435" data-name="Trazado 56435" d="M2763.772,648.27a9.56,9.56,0,1,0,9.56,9.559A9.56,9.56,0,0,0,2763.772,648.27Z" transform="translate(-2298.624 -606.382)" fill="#fff"/>
      <path id="Trazado_56436" data-name="Trazado 56436" d="M3086.525,1644.76c-.035.556-.075,1.114-.12,1.677a127.872,127.872,0,0,1-1.723,12.937L2948.771,1659l-51.323-.141s1.716-1.609,4.887-4.268,7.8-6.373,13.616-10.584c16.279-16.442,27.583-19.471,32.359-19.937.093-.047.186-.095.281-.142-8.2-.085-18.014,3.668-18.316,3.785,18.879-9.5,32.562-11.623,36.634-12.072.137-.053.273-.1.408-.158-5.955-.186-14.807,2.25-15.33,2.4a169.378,169.378,0,0,1,40.621-10.093c4.018-.865,8.1-1.567,12.22-2.071.4-.049.8-.1,1.2-.141q3.534-.4,7.036-.695a313.558,313.558,0,0,1,67.372,1.977q.538,1.192,1.036,2.425a69.657,69.657,0,0,1,3.649,12.137,81.144,81.144,0,0,1,1.582,14.028C3086.791,1638.424,3086.737,1641.523,3086.525,1644.76Z" transform="translate(-2405.755 -1321.118)" fill="#e75755"/>
      <path id="Trazado_56437" data-name="Trazado 56437" d="M3211.557,1599.557c.087,2.974.034,6.073-.178,9.31-.034.556-.075,1.114-.12,1.677a127.712,127.712,0,0,1-1.723,12.937h.349l-.417.37-135.93-.259c.027-.161.056-.321.088-.482,4.131-22.079,29.12-33.965,29.12-33.965-26.358,4.112-38.182,20.938-38.364,21.2,6.966-17.546,35.439-26.076,35.439-26.076-14.635,1.921-31.24,10.349-31.754,10.609,13.382-10.126,37-18.5,61.615-25.054,2.629-.7,5.274-1.379,7.917-2.04,21.491-5.357,42.987-9.334,58.417-11.886a70.8,70.8,0,0,1,9.276,15.067q.538,1.192,1.036,2.425a69.572,69.572,0,0,1,3.648,12.137A81.193,81.193,0,0,1,3211.557,1599.557Z" transform="translate(-2530.609 -1285.225)" fill="#fca19a"/>
      <path id="Rectángulo_5531" data-name="Rectángulo 5531" d="M.877,0H689.123A.877.877,0,0,1,690,.877v0a.877.877,0,0,1-.877.877H.877A.877.877,0,0,1,0,.878v0A.877.877,0,0,1,.877,0Z" transform="translate(0 337.557)" fill="#060632"/>
      <path id="Trazado_56438" data-name="Trazado 56438" d="M3428.483,1566.783q.133,4.461-.177,9.31c-.034.556-.076,1.114-.12,1.677-2.171-.18-4.54-.485-7.126-.926,0,0-44.586-8.772-66.524-30.455.483.353,16.1,11.7,33.256,12.664,0,0-28.615-9.486-32.946-22.837a11.745,11.745,0,0,1-.322-1.2v0c-2-9.586,24.4-20.387,47.96-22.932a97.884,97.884,0,0,1,8.739,8.962c.583.685,1.156,1.377,1.719,2.083a70.809,70.809,0,0,1,9.276,15.067q.537,1.192,1.035,2.425a69.573,69.573,0,0,1,3.649,12.137A81.1,81.1,0,0,1,3428.483,1566.783Z" transform="translate(-2747.535 -1252.451)" fill="#e75755"/>
      <g id="Grupo_28141" data-name="Grupo 28141" transform="translate(163.034 223.371)">
        <path id="Trazado_56439" data-name="Trazado 56439" d="M1704.564,1493.389c-.6-.646-1.167-1.332-1.639-1.938h0c-1.376-3.193-3.552-10.684-3.552-10.684-.235-8.751-1.226-13.818-2.028-16.548a12.3,12.3,0,0,0-1.061-2.722c-.018-.03-.027-.045-.027-.045a.305.305,0,0,0-.031.03,10.208,10.208,0,0,0-.811.844c-5.5,6.4-.8,16.645-.658,18.986.15,2.452,5.041,10.18,5.041,10.18h0a15.675,15.675,0,0,1,2.028,4.294c.236,1.539,2.873,3.224,2.873,3.224s.643.04.648-1.019S1706.193,1495.113,1704.564,1493.389Z" transform="translate(-1667.758 -1437.956)" fill="#ee9c9c"/>
        <path id="Trazado_56440" data-name="Trazado 56440" d="M1688.258,1528.276l-12.344,2.6-65.283-71.751c-.319-.447-1.6.1-.569,1.216l64.5,70.818-10.806,2.274a.851.851,0,0,0-.647.719l-.477,6.625a.432.432,0,0,0,.562.466.852.852,0,0,0,.647-.72l.434-6.032,5.3-1.115-.434,6.032a.432.432,0,0,0,.562.465.851.851,0,0,0,.647-.72l.434-6.032,4.669-.983.045.05.085-.077.139-.029-.434,6.032a.432.432,0,0,0,.562.465.853.853,0,0,0,.648-.72l.434-6.032,4.737-1-.434,6.032a.433.433,0,0,0,.563.465.853.853,0,0,0,.647-.72l.434-6.032,4.686-.986-.434,6.032a.432.432,0,0,0,.562.465.851.851,0,0,0,.647-.72l.477-6.625A.432.432,0,0,0,1688.258,1528.276Z" transform="translate(-1605.62 -1436.098)" fill="#0b0754"/>
        <path id="Trazado_56441" data-name="Trazado 56441" d="M1689.722,1417.689s-.338.913.161,1.271-1.265,2-1.606,3.379a3,3,0,0,0,.085,2.111,2.328,2.328,0,0,1,.256-1.243,1.919,1.919,0,0,0,.215,1.652c.545.7.225,1.061.225,1.061s1.727.028,2.147-1.141a3.264,3.264,0,0,1-.227.76s1.687-.59,2.126-1.748a2.4,2.4,0,0,0-.895-2.7c-.512-.183-1.345-1.566-1.192-1.941S1689.722,1417.689,1689.722,1417.689Z" transform="translate(-1664.313 -1405.225)" fill="#0b0b36"/>
        <path id="Trazado_56442" data-name="Trazado 56442" d="M1673.418,1392.285c-.475-1.686-4.367-2.063-8.693-.843s-7.447,3.575-6.971,5.26,4.367,2.063,8.693.843S1673.893,1393.969,1673.418,1392.285Z" transform="translate(-1641.547 -1385.058)" fill="#99acdd"/>
        <path id="Trazado_56443" data-name="Trazado 56443" d="M1646.594,1621.136l-2.024.754s-8.791-12.193-9.874-22.921a16.292,16.292,0,0,1,.289-5.485s-.086-.49-.236-1.358c-.07-.405-.156-.892-.253-1.451-.286-1.638-.679-3.878-1.129-6.43-1.034-5.871-2.375-13.377-3.416-18.894l.545-.175,5.9-1.9,1.219-3.873,4.394-1.157s.982,1.92,1.859,10.991c.162,1.19.309,2.5.42,3.924a77.688,77.688,0,0,1-.418,15.889c-.2,1.576-.456,3.2-.772,4.876a21.754,21.754,0,0,0-.169,4.816C1643.375,1607.507,1646.594,1621.136,1646.594,1621.136Z" transform="translate(-1620.789 -1510.348)" fill="#0b0754"/>
        <path id="Trazado_56444" data-name="Trazado 56444" d="M1644.291,1571.956l-9.541,18.969c-.07-.405-.156-.892-.253-1.451-.286-1.638-.679-3.878-1.129-6.43-1.034-5.871-2.375-13.377-3.416-18.895l.545-.175,5.9-1.9,1.219-3.873,5.249-1.561s.127,2.325,1,11.4C1644.033,1569.222,1644.18,1570.534,1644.291,1571.956Z" transform="translate(-1620.789 -1509.148)" fill="#060632"/>
        <path id="Trazado_56445" data-name="Trazado 56445" d="M1615.5,1552.518c.291-.348-1.793-.285-1.793-.285-3.7.983-13.588-2.747-13.588-2.747s-3.585,3.152-3.114,10.705c.23,3.687.649,19.354,1.087,23.99.158,1.681.3,2.876.354,3.354a.011.011,0,0,1,0,0,.66.66,0,0,1-.108.41,21.77,21.77,0,0,0-1.618,3.4c-4.3,11.464.663,25.581.663,25.581l1.288-.52s2.825-15.711,5.12-22.652a13.789,13.789,0,0,1,1.106-2.655,29.981,29.981,0,0,0,2.765-7.373,181.28,181.28,0,0,0,3.719-19.561C1611.5,1564.18,1612.432,1556.193,1615.5,1552.518Z" transform="translate(-1594.623 -1503.801)" fill="#0b0754"/>
        <path id="Trazado_56446" data-name="Trazado 56446" d="M1672.929,1378.486l-9.529,7.715s-.278-1.674-1.259-1.417c-1.53.4-3.392-3.224-1.586-6.933q.178-.363.362-.684c1.87-1.441,3.949-3.047,5.431-4.169C1669.869,1372.152,1672.929,1378.486,1672.929,1378.486Z" transform="translate(-1643.123 -1371.741)" fill="#0b0b36"/>
        <path id="Trazado_56447" data-name="Trazado 56447" d="M1661.642,1435.885a11.535,11.535,0,0,1-4.262,1c-6.362.349-7.806-5.229-8.069-8.93a5.34,5.34,0,0,1,2.183-.276c.451.025.922.071,1.31.119.778-.406,2.176-2.381,2.984-5.684l.274.127,4.591,2.158s-.488,1.494-.848,2.923a5.826,5.826,0,0,0-.314,2.5c.363.147.579.24.579.24a.013.013,0,0,0,0,0A31.52,31.52,0,0,1,1661.642,1435.885Z" transform="translate(-1635.269 -1408.532)" fill="#f0acac"/>
        <path id="Trazado_56448" data-name="Trazado 56448" d="M1680.688,1424.778s-.487,1.492-.847,2.923c-2.683-.749-3.5-3.57-3.743-5.081Z" transform="translate(-1655.303 -1408.913)" fill="#ea8a8a"/>
        <path id="Trazado_56449" data-name="Trazado 56449" d="M1680.125,1402.807s-6.42-1.486-5.433-5.47.823-6.858,4.963-6.078,4.557,2.5,4.551,3.906S1681.821,1403.091,1680.125,1402.807Z" transform="translate(-1654.175 -1385.362)" fill="#f0acac"/>
        <path id="Trazado_56450" data-name="Trazado 56450" d="M1679.78,1390.749c-.69-1.444-1.5-1.367-2.01-1.111a4.605,4.605,0,0,0-5.975-.511,7.84,7.84,0,0,1-3.607,3.875s.986,1.01,3.844.988a4.706,4.706,0,0,0,2.55-.96,15.359,15.359,0,0,1-3.347,2.5c3.578-.685,5.978-4.827,6.223-5.267a5.168,5.168,0,0,1,.932,2.205c.066,1.094-.31,3.217.317,3.3C1678.706,1395.762,1680.815,1392.914,1679.78,1390.749Z" transform="translate(-1649.387 -1383.206)" fill="#0b0b36"/>
        <path id="Trazado_56451" data-name="Trazado 56451" d="M1672.822,1378.274a14.224,14.224,0,0,0-6.369.389c-3.3.845-5.891,2.339-6.5,3.635a6.775,6.775,0,0,1,.281-3.671,7.578,7.578,0,0,1,.327-.776q.178-.364.362-.684c1.87-1.441,3.949-3.047,5.431-4.169,1.84-.442,3.554,1.076,4.77,2.627A17.758,17.758,0,0,1,1672.822,1378.274Z" transform="translate(-1643.125 -1371.742)" fill="#0b0b36"/>
        <path id="Trazado_56452" data-name="Trazado 56452" d="M1603.853,1804.187h-10.194a5.6,5.6,0,0,1,.288-2.733c.51-1.131,1.309-1.645,1.118-3.013a3.672,3.672,0,0,0,3.177,1.216,11.209,11.209,0,0,0,1.769,2.293C1600.677,1802.428,1603.648,1802.258,1603.853,1804.187Z" transform="translate(-1593.603 -1690.001)" fill="#060632"/>
        <path id="Trazado_56453" data-name="Trazado 56453" d="M1690.535,1805.543H1680.34a4.237,4.237,0,0,1,.288-2.732,1.965,1.965,0,0,0-.073-2.346,3.962,3.962,0,0,0,1.717.323,3.592,3.592,0,0,0,1.516-.533,36.458,36.458,0,0,0,2.9,3.051C1687.359,1803.784,1690.329,1803.614,1690.535,1805.543Z" transform="translate(-1658.396 -1691.357)" fill="#060632"/>
        <path id="Trazado_56454" data-name="Trazado 56454" d="M1633.989,1450.946a13.6,13.6,0,0,0-.994-2.6c-.009-.027-.25-.749-2.42-1.542-.345-.124-.7-.318-1.116-.488l-.255-.1v.006c.044.158,1.2,4.355.78,5.249-.3.641-4.42-.625-6.988-1.666-.458-.185-.868-.364-1.2-.523a2.644,2.644,0,0,1-.822-.511,10.027,10.027,0,0,1-.351-3.161c-.009-.527-.008-1.007,0-1.334,0-.141,0-.254,0-.331s0-.115,0-.115l-.078-.01h-.013c-.165-.019-.547-.061-1.039-.087a9.4,9.4,0,0,0-3.612.378,13.109,13.109,0,0,1,.922,3.08c.023.153.043.306.058.46a6.227,6.227,0,0,1,.025.969,1.854,1.854,0,0,1-.587,1.155,8.946,8.946,0,0,1-1.221,1.014c-.316.228-.656.467-1.005.727-.01.623,0,1.375,0,2.223a56.715,56.715,0,0,1-.248,6.141,5.656,5.656,0,0,1-.813,2.372,5.78,5.78,0,0,1-.6.81c-.351.395-.755.866-1.176,1.386-1.715,2.139-3.659,5.122-3.1,7.128.052,2.354,18.5,2.538,18.078-.047,0,0,4.379-11.467,5.991-14.937.057-.128.11-.252.158-.379a9.261,9.261,0,0,0,.184-4.735A3.524,3.524,0,0,1,1633.989,1450.946Z" transform="translate(-1604.401 -1424.683)" fill="#eb8c8c"/>
        <path id="Trazado_56455" data-name="Trazado 56455" d="M1659.51,1376.23s-1.072-6.72,3.724-7.719,7.488.846,8.837,4.359Z" transform="translate(-1642.82 -1368.242)" fill="#e75755"/>
        <path id="Trazado_56456" data-name="Trazado 56456" d="M1666.166,1385.42c-.411-1.609-3.409-2.322-7.406-2a30.566,30.566,0,0,0-5.044.865,29.364,29.364,0,0,0-5.846,2.136c-3.067,1.546-4.906,3.376-4.534,4.832.414,1.617,3.442,2.329,7.471,1.993-.189-.408-.511-.8-1.024-.667s-1.093-.2-1.534-.857a1.352,1.352,0,0,1-.767-.827,1.17,1.17,0,0,1,.108-.8c.611-1.3,3.2-2.791,6.5-3.635a14.225,14.225,0,0,1,6.369-.389c.861.212,1.426.587,1.56,1.111a1.658,1.658,0,0,1-.586,1.478,5.839,5.839,0,0,1-.508,1.929C1664.414,1388.981,1666.566,1386.986,1666.166,1385.42Z" transform="translate(-1630.765 -1379.539)" fill="#fca19a"/>
        <path id="Trazado_56457" data-name="Trazado 56457" d="M1627.828,1481.105a47.179,47.179,0,0,1-7.109-.883c.419-.522.824-.991,1.176-1.387a5.788,5.788,0,0,0,.6-.81,5.656,5.656,0,0,0,.813-2.373,56.494,56.494,0,0,0,.248-6.14c2.321-2.6,4.27-4.711,4.27-4.711s4.326,3.965,5,7.915S1634.76,1481.6,1627.828,1481.105Z" transform="translate(-1613.884 -1440.461)" fill="#b86262"/>
        <path id="Trazado_56458" data-name="Trazado 56458" d="M1657.178,1453.1h-1.3a13.167,13.167,0,0,0-.085-3.755,13.532,13.532,0,0,0-1.172-3.671,11.169,11.169,0,0,0-1.131-1.878c.492.026.874.068,1.039.087h.013l.077.124a18.061,18.061,0,0,1,2.371,5.859A9.835,9.835,0,0,1,1657.178,1453.1Z" transform="translate(-1638.393 -1424.752)" fill="#0b0754"/>
        <path id="Trazado_56459" data-name="Trazado 56459" d="M1694.292,1463.73l-1.264-.312a13.179,13.179,0,0,0-.022-9.368c.414.169.786.333,1.117.488C1695.876,1460.26,1694.292,1463.73,1694.292,1463.73Z" transform="translate(-1667.949 -1432.421)" fill="#0b0754"/>
        <path id="Trazado_56460" data-name="Trazado 56460" d="M1617.326,1479.226c.027-.349.274-3.753.274-3.753s.139-1.044,1.908-.59,8.036,2.086,8.036,2.086a2.015,2.015,0,0,1,.361,1.818c-.318,1.044-1.369,7.262-1.369,7.262l-3.807,9.355-2.774,2.838-16.914,3.292s-.357-7.016,2.55-11.169c1.7-2.422,3.673-4.886,3.673-4.886S1616.917,1484.569,1617.326,1479.226Z" transform="translate(-1600.652 -1447.917)" fill="#0b0754"/>
        <path id="Trazado_56461" data-name="Trazado 56461" d="M1649.188,1475.917a11.942,11.942,0,0,1-4.642-1.274c-.6-.481-1.318-1.063-2.075-1.7a68.684,68.684,0,0,1-5.3-4.786,7.42,7.42,0,0,1-1.552-2.008,21.058,21.058,0,0,1-.735-3.168c-.122-.707-.247-1.477-.365-2.292-.224-1.348-.428-2.8-.647-4.257-.392-2.655-.842-5.336-1.35-7.436a13.929,13.929,0,0,0-1.1-3.14c-.317-.571-.663-.9-1.051-.906-.063,0-.111.011-.159.018,0,0-2.28.211-3.1,4.577a6.748,6.748,0,0,0-.124.771,16.458,16.458,0,0,0-.086,2.8,41.8,41.8,0,0,0,.684,6.038c.113.581.223,1.177.348,1.775.9,4.334,2.313,8.481,3.845,10.08a1.833,1.833,0,0,0,.184.189,16.107,16.107,0,0,0,2.827,1.927c1.67.924,3.682,1.848,5.485,2.641l.015,0c1.057.44,2.026.848,2.84,1.167,0,0,.173.078.479.2.258.115.613.235,1.018.385l.186.07a7.816,7.816,0,0,1,2.438,1.384,4.612,4.612,0,0,0,4.53.742S1650.966,1476.032,1649.188,1475.917Z" transform="translate(-1618.497 -1425.616)" fill="#f0acac"/>
        <path id="Trazado_56462" data-name="Trazado 56462" d="M1633.449,1448.865a6.171,6.171,0,0,0-5.669.515c.84-4.431,3.232-4.626,3.232-4.626C1632,1444.552,1632.782,1446.284,1633.449,1448.865Z" transform="translate(-1619.165 -1425.456)" fill="#eb8c8c"/>
        <g id="Grupo_28138" data-name="Grupo 28138" transform="translate(17.581 27.33)">
          <g id="Grupo_28137" data-name="Grupo 28137">
            <path id="Trazado_56463" data-name="Trazado 56463" d="M1663.349,1477.208a.545.545,0,1,1,.545.545A.545.545,0,0,1,1663.349,1477.208Z" transform="translate(-1663.349 -1476.664)" fill="#b86262"/>
            <path id="Trazado_56464" data-name="Trazado 56464" d="M1663.738,1477.208a.545.545,0,1,1,.545.545A.545.545,0,0,1,1663.738,1477.208Z" transform="translate(-1663.64 -1476.664)" fill="#eb8c8c"/>
          </g>
          <path id="Trazado_56465" data-name="Trazado 56465" d="M1664.612,1478.255a.08.08,0,0,1,.1-.052.079.079,0,1,1-.1.052Z" transform="translate(-1664.29 -1477.812)" fill="#0b0754"/>
          <path id="Trazado_56466" data-name="Trazado 56466" d="M1666.566,1478.878a.079.079,0,1,1,.052.1A.079.079,0,0,1,1666.566,1478.878Z" transform="translate(-1665.752 -1478.279)" fill="#0b0754"/>
        </g>
        <g id="Grupo_28140" data-name="Grupo 28140" transform="translate(25.434 29.097)">
          <g id="Grupo_28139" data-name="Grupo 28139">
            <path id="Trazado_56467" data-name="Trazado 56467" d="M1694.5,1484.221a.545.545,0,1,1,.545.545A.545.545,0,0,1,1694.5,1484.221Z" transform="translate(-1694.503 -1483.676)" fill="#b86262"/>
            <path id="Trazado_56468" data-name="Trazado 56468" d="M1694.892,1484.221a.545.545,0,1,1,.545.545A.545.545,0,0,1,1694.892,1484.221Z" transform="translate(-1694.794 -1483.676)" fill="#eb8c8c"/>
          </g>
          <path id="Trazado_56469" data-name="Trazado 56469" d="M1695.766,1485.266a.079.079,0,1,1,.052.1A.079.079,0,0,1,1695.766,1485.266Z" transform="translate(-1695.445 -1484.824)" fill="#0b0754"/>
          <path id="Trazado_56470" data-name="Trazado 56470" d="M1697.72,1485.891a.079.079,0,0,1,.151.048.079.079,0,1,1-.151-.048Z" transform="translate(-1696.906 -1485.291)" fill="#0b0754"/>
        </g>
        <path id="Trazado_56471" data-name="Trazado 56471" d="M1655.672,1410.124s-.337.913.161,1.271-1.266,2-1.606,3.379a3,3,0,0,0,.085,2.111,2.326,2.326,0,0,1,.255-1.243,1.918,1.918,0,0,0,.216,1.651c.545.7.225,1.061.225,1.061s1.727.028,2.147-1.141a3.282,3.282,0,0,1-.227.761s1.687-.591,2.126-1.748a2.4,2.4,0,0,0-.895-2.7c-.512-.182-1.345-1.566-1.192-1.941S1655.672,1410.124,1655.672,1410.124Z" transform="translate(-1638.847 -1399.567)" fill="#0b0b36"/>
      </g>
      <g id="man" transform="translate(452.831 110.052)">
        <g id="Grupo_28142" data-name="Grupo 28142" transform="translate(57.417 101.919)">
          <path id="Trazado_56472" data-name="Trazado 56472" d="M3196.915,1747.184s3.688,3.419,2.968,5.849-4.048,4.048-4.5,7.018-2.249,4.589-3.869,4.589h-7.721s-1.192-2.089,1.686-2.719,3.966-4.12,3.786-7.358a57.782,57.782,0,0,1,.271-7.558l6.118-1.44Z" transform="translate(-3129.987 -1639.053)" fill="#0b0b36"/>
          <path id="Trazado_56473" data-name="Trazado 56473" d="M2992,1787.051a11.466,11.466,0,0,1-2.849.371h-18.1c.071-.562.522-2.344,3.314-2.8,3.332-.542,9.179-2.521,10.169-6.928s8.188,1.349,8.188,1.349S2993.625,1786.241,2992,1787.051Z" transform="translate(-2971.055 -1661.841)" fill="#0b0b36"/>
          <path id="Trazado_56474" data-name="Trazado 56474" d="M2987.6,1346.322s1.093,13.639,2.378,30.035c1.746,22.272,3.846,49.629,4.054,54.811.359,9,1.8,23.394,1.8,23.394s3.417,3.42,10.257,1.979a235.517,235.517,0,0,0,7.835-42.292c.028-.356.054-.715.082-1.074,1.62-22.134,4.138-68.742,4.138-68.742Z" transform="translate(-2983.432 -1339.034)" fill="#100c57"/>
          <path id="Trazado_56475" data-name="Trazado 56475" d="M2987.6,1346.322s1.093,13.639,2.378,30.035l23.947,37.892c.028-.356.054-.715.082-1.074,1.62-22.134,4.138-68.742,4.138-68.742Z" transform="translate(-2983.432 -1339.034)" fill="#0b0b36"/>
          <path id="Trazado_56476" data-name="Trazado 56476" d="M3007.41,1331.924s19.7,49.4,32.661,72.61,17.006,29.692,17.006,29.692,7.422-2.969,8.1-4.994c0,0-4.955-44.814-13.632-55.739-4.9-6.173-10.662-24.7-10.932-31.177s-1.755-19.3-1.755-19.3Z" transform="translate(-2998.246 -1323.016)" fill="#100c57"/>
        </g>
        <g id="Grupo_28143" data-name="Grupo 28143" transform="translate(16.596 41.395)">
          <path id="Trazado_56477" data-name="Trazado 56477" d="M2820.427,1331.234s-6.954,3.337-7.89,4.194-3.246,5.062-3.069,5.379.523.415,1.154-.021,2.4-2.258,2.463-1.919-4.72,5.969-3.874,7.161,5.644.839,8.384-1.109,5.473-9.11,5.885-9.5C2826.975,1332.1,2820.427,1331.234,2820.427,1331.234Z" transform="translate(-2809.112 -1268.638)" fill="#f0acac"/>
          <path id="Trazado_56478" data-name="Trazado 56478" d="M2846.878,1149.079c-1.931-1.68-1.982-2.1-1.982-2.1s12.33-21.321,13.4-23.372,7.676-34.072,7.676-34.072l22.846-6.623s-16.092,41.61-18.9,46.752c-4.644,8.5-19.8,21-19.8,21A7.131,7.131,0,0,1,2846.878,1149.079Z" transform="translate(-2835.876 -1082.908)" fill="#ba6767"/>
        </g>
        <path id="Trazado_56479" data-name="Trazado 56479" d="M2917.654,1018.208s-8.04,14.146-15.9,15.992a21.472,21.472,0,0,1,2.241-8c-.784-.925-1.472-1.773-2.068-2.533a47.539,47.539,0,0,1-2.918-4.087l2.667-7.17,1.81-4.865a23.4,23.4,0,0,0,2.827,4.075A19.239,19.239,0,0,0,2917.654,1018.208Z" transform="translate(-2859.753 -985.146)" fill="#f0acac"/>
        <path id="Trazado_56480" data-name="Trazado 56480" d="M2906.314,1023.7s.96,7.089-4.386,12.047a47.539,47.539,0,0,1-2.918-4.087l2.667-7.17A15.23,15.23,0,0,1,2906.314,1023.7Z" transform="translate(-2859.753 -997.229)" fill="#ea8a8a"/>
        <path id="Trazado_56481" data-name="Trazado 56481" d="M2860.443,990.687s12.013-4.683,8.981-12.119S2865.9,965.52,2858.1,968.2s-8.122,6.117-7.713,8.845S2857.24,991.713,2860.443,990.687Z" transform="translate(-2823.304 -955.209)" fill="#f0acac"/>
        <path id="Trazado_56482" data-name="Trazado 56482" d="M2964.727,1116.587c-4.844,6.966-41.077,16.274-40.644,11.454a52.465,52.465,0,0,0,0-9.511q-.137-1.551-.385-3.285a75.844,75.844,0,0,0-7.985-23.917q-.549-1.061-1.14-2.141a73.126,73.126,0,0,1-5.022-11.285c-2.511-7.255-3.526-14.2-2.256-18.732a.228.228,0,0,1,.019-.063c7.573-3.5,10.506-17.082,10.506-17.082s25.837,4.637,40.313,39.075c0,0,1.39,3.781,2.978,8.914,1.929,6.225,4.152,14.431,4.536,20.286C2965.829,1113.081,2965.6,1115.332,2964.727,1116.587Z" transform="translate(-2865.536 -1010.935)" fill="#ea8888"/>
        <path id="Trazado_56483" data-name="Trazado 56483" d="M2857.864,948.232c.084-.167.328-.344.924-.526a2.494,2.494,0,0,0-1.209-.045,3.177,3.177,0,0,0-2.694-2.235,1.892,1.892,0,0,1,1.207,1.112c-2.107-1.335-6.013-1.723-15.763,1.525-12.85,4.28-6.43,11.739-4.482,12.337s5.533-3.24,8.757-3.764,4.969,3.969,6.2,4.34.53-.649,1.817-1.673,2.026,1.384,2,3.076,2.508,3.383,2.508,3.383a23.888,23.888,0,0,1,1.446-2.789c1.473-2.7,1.072-12.5-.334-14.268C2858.114,948.549,2857.991,948.391,2857.864,948.232Z" transform="translate(-2810.019 -938.686)" fill="#0b0754"/>
        <g id="Grupo_28144" data-name="Grupo 28144" transform="translate(16.646)">
          <path id="Trazado_56484" data-name="Trazado 56484" d="M2871.352,930s-1.488-11.951-10.133-11.287-12.314,5.127-12.876,11.763Z" transform="translate(-2838.503 -918.687)" fill="#e75755"/>
          <path id="Trazado_56485" data-name="Trazado 56485" d="M2841.883,954.827c-.318-.067-.645-.135-.976-.2-.125-.024-.25-.048-.376-.068a52.431,52.431,0,0,0-10.616-.683,55.3,55.3,0,0,0-7.8.784c-.408.072-.808.144-1.2.226-.539.111-1.062.226-1.568.351-6.085,1.487-10.121,3.983-10.035,6.692.087,2.862,4.1,5.19,10.823,6.21a9.336,9.336,0,0,1-.413-1.516,7.055,7.055,0,0,1-2.5-3.737c-.034-.957.746-1.871,2.1-2.66,2.333-1.351,6.388-2.324,11.021-2.473,4.979-.159,9.347.678,11.666,2.045,0,0,.105,4.512.048,5.537-.048.616-.115,1.2-.2,1.737,5.585-1.506,9.222-3.892,9.14-6.466C2850.917,958.1,2847.319,956,2841.883,954.827Z" transform="translate(-2809.31 -944.986)" fill="#fca19a"/>
        </g>
        <path id="Trazado_56486" data-name="Trazado 56486" d="M3033.18,1174.688c-31.176-9.4-36.135-46.575-36.135-46.575s17.75,13.565,31.6,26.289C3030.574,1160.627,3032.8,1168.834,3033.18,1174.688Z" transform="translate(-2933.076 -1075.323)" fill="#ba6767"/>
        <path id="Trazado_56487" data-name="Trazado 56487" d="M3163.24,1391.146l-3.131-29.17-4.51.484a14.1,14.1,0,0,0-27.986,3l-4.51.485,3.131,29.17a5.892,5.892,0,0,0,6.468,5.214l25.323-2.719A5.892,5.892,0,0,0,3163.24,1391.146Zm-22.924-39.2a13,13,0,0,1,14.166,10.63l-25.75,2.764A13,13,0,0,1,3140.315,1351.951Z" transform="translate(-3027.359 -1241.843)" fill="#9e332e"/>
        <g id="Grupo_28145" data-name="Grupo 28145" transform="translate(51.808 38.519)">
          <path id="Trazado_56488" data-name="Trazado 56488" d="M3172.655,1312.352a64.057,64.057,0,0,0-.533,6.861c.17.962,1.292,3.826,1.572,3.841s1.127.05,1.1-.54-.406-1.141-.16-1.043.318,2.324,1.442,2.266,4.434-1.305,4.3-3.891-3.661-7.322-3.744-7.751C3175.924,1308.454,3172.655,1312.352,3172.655,1312.352Z" transform="translate(-3115.809 -1250.285)" fill="#f0acac"/>
          <path id="Trazado_56489" data-name="Trazado 56489" d="M3007.513,1134.56c-2.474,1.134-3.392-.022-3.392-.022s-14.408-24.059-15.925-25.994-28.115-13.348-28.115-13.348-10.824-4.137-11.252-10.7c-.371-5.706,2.868-9.212,6.415-11.326a11.974,11.974,0,0,1,13.463.87c8.725,6.775,26.02,20.405,28.8,24.1,6.2,8.226,13.062,34.01,13.062,34.01A8.569,8.569,0,0,1,3007.513,1134.56Z" transform="translate(-2948.8 -1071.499)" fill="#ea8888"/>
        </g>
        <g id="Grupo_28146" data-name="Grupo 28146" transform="translate(0 117.402)">
          <path id="Trazado_56490" data-name="Trazado 56490" d="M2762.717,1457.134a1.035,1.035,0,1,0,1.035,1.035A1.035,1.035,0,0,0,2762.717,1457.134Z" transform="translate(-2757.042 -1438.81)" fill="#bed2fa"/>
          <path id="Trazado_56491" data-name="Trazado 56491" d="M2845.932,1386.509a1.035,1.035,0,1,0-1.034-1.035A1.035,1.035,0,0,0,2845.932,1386.509Z" transform="translate(-2819.281 -1384.44)" fill="#bed2fa"/>
          <path id="Trazado_56492" data-name="Trazado 56492" d="M2836.582,1484a1.035,1.035,0,1,0,1.035,1.035A1.035,1.035,0,0,0,2836.582,1484Z" transform="translate(-2812.287 -1458.907)" fill="#bed2fa"/>
          <path id="Trazado_56493" data-name="Trazado 56493" d="M2744.306,1637.726a1.035,1.035,0,1,0,1.035,1.034A1.035,1.035,0,0,0,2744.306,1637.726Z" transform="translate(-2743.271 -1573.88)" fill="#bed2fa"/>
          <path id="Trazado_56494" data-name="Trazado 56494" d="M2818.188,1563.841a1.035,1.035,0,1,0,1.035,1.035A1.035,1.035,0,0,0,2818.188,1563.841Z" transform="translate(-2798.531 -1518.619)" fill="#bed2fa"/>
          <path id="Trazado_56495" data-name="Trazado 56495" d="M2845.932,1404.532a1.035,1.035,0,1,0,1.035,1.035A1.034,1.034,0,0,0,2845.932,1404.532Z" transform="translate(-2819.281 -1399.467)" fill="#bed2fa"/>
        </g>
      </g>
      <g id="Grupo_28147" data-name="Grupo 28147" transform="translate(395.895 269.46)">
        <path id="Trazado_56496" data-name="Trazado 56496" d="M2590.447,1741.858s-5.385,12.686-4.548,15.438,7.3,3.231,7.3,3.231h-11.01a18.6,18.6,0,0,1,.958-5.027c.838-2.154,1.915-15.318,1.915-15.318Z" transform="translate(-2565.858 -1692.516)" fill="#eb8e8e"/>
        <path id="Trazado_56497" data-name="Trazado 56497" d="M2627.055,1753.946s4.756,14.091,7.18,15.078a45.5,45.5,0,0,0,6.461,1.8h-9.6s1.343-1.994.465-2.952-8.7-12.805-8.7-12.805Z" transform="translate(-2596.278 -1702.81)" fill="#eb8e8e"/>
        <path id="Trazado_56498" data-name="Trazado 56498" d="M2583.5,1557.418c.286,1.224-2.855,1.469-5.345,1.8a17.666,17.666,0,0,0-2.122.407,11.229,11.229,0,0,1-4.57.2c-2.081,5.1-1.183,18.279-2.734,29.99-1.02,7.507-7.507,11.506-15.382,13.219l.041.042a1.172,1.172,0,0,0-.245.04,11.834,11.834,0,0,1-1.184.2c-.693.2-1.347.449-1.306.816a27.708,27.708,0,0,1-.326,3.918l-2.653.856s-3.875-4.774-4.773-4.774c-.041,0-.041,0-.041-.04h-.734l.122.04s-2.04,2.735-2.774,2.816a21.283,21.283,0,0,1-3.59-.572,36.447,36.447,0,0,1-2.163-2.979c-.245-.041-.449-.082-.693-.123-7.671-1.346-11.71-8-13.709-13.382h-.041a36.666,36.666,0,0,1-1.877-7.265c4.122,2.164,9.507,0,9.507,0,20.646-8.241,35.417,2.489,36.4-8.772a54.76,54.76,0,0,1,4.732-18.32,5.246,5.246,0,0,1,1.959-4,4,4,0,0,1,4.611.652,8.833,8.833,0,0,0,1.591,1.1C2578.929,1554.807,2583.213,1556.072,2583.5,1557.418Z" transform="translate(-2517.399 -1551.082)" fill="#fff"/>
        <path id="Trazado_56499" data-name="Trazado 56499" d="M2751.537,1562.094c.971.439,1.031,2.442.967,3.693,2.521-.34,5.647-.6,5.375-1.827-.292-1.313-4.575-2.586-7.326-4.109A2.049,2.049,0,0,0,2751.537,1562.094Z" transform="translate(-2691.763 -1557.64)" fill="#eb8e8e"/>
        <path id="Trazado_56500" data-name="Trazado 56500" d="M2577.153,1585.633c-2.081,5.1-1.183,18.279-2.733,29.99-1.021,7.507-7.508,11.506-15.382,13.219l.041.042a1.167,1.167,0,0,0-.245.04,11.858,11.858,0,0,1-1.184.2c-.693.2-1.347.449-1.306.816a27.561,27.561,0,0,1-.326,3.918l-2.652.857s-3.875-4.775-4.773-4.775c-.041,0-.041,0-.041-.04h-.734l.122.04s-2.04,2.735-2.774,2.816a21.249,21.249,0,0,1-3.59-.572,36.447,36.447,0,0,1-2.163-2.978c-.245-.041-.45-.082-.693-.123-7.671-1.346-11.711-8-13.71-13.382,0,0,6.12,6.732,17.586,5.018,11.465-1.674,23.38-2.53,26.195-4.489S2574.3,1584.245,2577.153,1585.633Z" transform="translate(-2523.09 -1576.889)" fill="#fdc0bf"/>
      </g>
      <g id="Grupo_28148" data-name="Grupo 28148" transform="translate(455.134 292.239)">
        <path id="Trazado_56501" data-name="Trazado 56501" d="M2856.583,1768.331s3.582,8.437,3.025,10.267-4.855,2.149-4.855,2.149h7.322a12.34,12.34,0,0,0-.636-3.342c-.557-1.433-1.273-10.188-1.273-10.188Z" transform="translate(-2828.955 -1735.516)" fill="#eb8e8e"/>
        <path id="Trazado_56502" data-name="Trazado 56502" d="M2818.77,1776.37s-3.164,9.371-4.775,10.028a30.36,30.36,0,0,1-4.3,1.195h6.387s-.892-1.326-.309-1.963,5.784-8.516,5.784-8.516Z" transform="translate(-2795.256 -1742.362)" fill="#eb8e8e"/>
        <path id="Trazado_56503" data-name="Trazado 56503" d="M2752.458,1645.667c-.19.814,1.9.977,3.556,1.194a11.933,11.933,0,0,1,1.41.271,7.474,7.474,0,0,0,3.04.136c1.384,3.392.787,12.157,1.818,19.945.679,4.992,4.993,7.652,10.23,8.791l-.027.028a.785.785,0,0,1,.163.026,7.828,7.828,0,0,0,.787.136c.461.136.9.3.869.542a18.3,18.3,0,0,0,.217,2.606l1.763.57s2.579-3.176,3.175-3.176c.027,0,.027,0,.027-.027h.488l-.081.027s1.356,1.819,1.846,1.873a14.2,14.2,0,0,0,2.387-.381,24.248,24.248,0,0,0,1.438-1.981c.163-.026.3-.054.461-.081,5.1-.9,7.788-5.318,9.117-8.9h.028a24.376,24.376,0,0,0,1.248-4.831c-2.74,1.439-6.323,0-6.323,0-13.73-5.481-23.555,1.656-24.205-5.834a36.417,36.417,0,0,0-3.148-12.184,3.489,3.489,0,0,0-1.3-2.66,2.657,2.657,0,0,0-3.067.434,5.9,5.9,0,0,1-1.058.733C2755.5,1643.93,2752.648,1644.772,2752.458,1645.667Z" transform="translate(-2752.437 -1641.453)" fill="#fff"/>
        <path id="Trazado_56504" data-name="Trazado 56504" d="M2756.638,1648.776c-.646.292-.685,1.625-.643,2.456-1.677-.227-3.756-.4-3.575-1.216.194-.873,3.043-1.72,4.873-2.733A1.364,1.364,0,0,1,2756.638,1648.776Z" transform="translate(-2752.409 -1645.814)" fill="#eb8e8e"/>
        <path id="Trazado_56505" data-name="Trazado 56505" d="M2784.251,1664.432c1.383,3.392.787,12.157,1.818,19.945.678,4.992,4.993,7.652,10.23,8.792l-.026.028a.788.788,0,0,1,.162.026,7.76,7.76,0,0,0,.787.136c.461.136.9.3.869.542a18.318,18.318,0,0,0,.216,2.606l1.764.57s2.579-3.176,3.176-3.176c.026,0,.026,0,.026-.026h.488l-.08.026s1.357,1.819,1.845,1.873a14.184,14.184,0,0,0,2.388-.38,24.248,24.248,0,0,0,1.438-1.981c.163-.027.3-.054.461-.081,5.1-.9,7.789-5.318,9.118-8.9,0,0-4.071,4.477-11.7,3.338-7.625-1.113-15.549-1.682-17.421-2.986S2786.15,1663.508,2784.251,1664.432Z" transform="translate(-2776.225 -1658.616)" fill="#fdc0bf"/>
      </g>
      <path id="Trazado_56506" data-name="Trazado 56506" d="M1227.98,1756.355c6.349-2.652,13.5-6.06,9.937-6.66-3.689-.621-9.75,3.3-13.844,6.4q-1.162-.085-2.312-.186c1.966-3.8,5.073-10.616,2.36-11.158-2.82-.563-3.58,6.88-3.728,11.028-1.805-.184-3.563-.415-5.223-.728-13-2.455-31.359,8.958-31.359,8.958h64.018C1247.376,1757.67,1238.014,1757.005,1227.98,1756.355Z" transform="translate(-1124.073 -1426.448)" fill="#6975d9"/>
    </g>
  </g>
</svg>
